<mxfile host="app.diagrams.net" modified="2023-04-02T13:53:56.687Z" agent="Mozilla/5.0 (Windows NT 10.0; Win64; x64) AppleWebKit/537.36 (KHTML, like Gecko) Chrome/110.0.0.0 Safari/537.36 OPR/96.0.0.0" etag="G4wzeLHHAh0BTI5EQqMT" version="21.1.2" type="device">
  <diagram name="Page-1" id="c4acf3e9-155e-7222-9cf6-157b1a14988f">
    <mxGraphModel dx="1990" dy="-6" grid="1" gridSize="10" guides="1" tooltips="1" connect="1" arrows="1" fold="1" page="1" pageScale="1" pageWidth="850" pageHeight="1100" background="none" math="0" shadow="0">
      <root>
        <mxCell id="0" />
        <mxCell id="1" parent="0" />
        <mxCell id="6hVKZMIilRhy27HZkqrv-88" style="edgeStyle=orthogonalEdgeStyle;rounded=0;orthogonalLoop=1;jettySize=auto;html=1;exitX=1;exitY=0;exitDx=0;exitDy=0;entryX=0;entryY=0.25;entryDx=0;entryDy=0;endArrow=none;endFill=0;" edge="1" parent="1" source="6hVKZMIilRhy27HZkqrv-104" target="6hVKZMIilRhy27HZkqrv-105">
          <mxGeometry relative="1" as="geometry">
            <Array as="points">
              <mxPoint x="790" y="1925" />
              <mxPoint x="995" y="1925" />
            </Array>
          </mxGeometry>
        </mxCell>
        <mxCell id="6hVKZMIilRhy27HZkqrv-89" style="edgeStyle=orthogonalEdgeStyle;rounded=0;orthogonalLoop=1;jettySize=auto;html=1;exitX=0.25;exitY=0;exitDx=0;exitDy=0;endArrow=none;endFill=0;" edge="1" parent="1" source="6hVKZMIilRhy27HZkqrv-104" target="6hVKZMIilRhy27HZkqrv-106">
          <mxGeometry relative="1" as="geometry">
            <Array as="points">
              <mxPoint x="705" y="1600" />
              <mxPoint x="890" y="1600" />
            </Array>
          </mxGeometry>
        </mxCell>
        <mxCell id="6hVKZMIilRhy27HZkqrv-90" style="edgeStyle=orthogonalEdgeStyle;rounded=0;orthogonalLoop=1;jettySize=auto;html=1;exitX=0;exitY=0.25;exitDx=0;exitDy=0;entryX=1;entryY=0.25;entryDx=0;entryDy=0;endArrow=none;endFill=0;" edge="1" parent="1" source="6hVKZMIilRhy27HZkqrv-104" target="6hVKZMIilRhy27HZkqrv-118">
          <mxGeometry relative="1" as="geometry">
            <Array as="points">
              <mxPoint x="680" y="1933" />
              <mxPoint x="680" y="1775" />
            </Array>
          </mxGeometry>
        </mxCell>
        <mxCell id="6hVKZMIilRhy27HZkqrv-91" style="edgeStyle=orthogonalEdgeStyle;rounded=0;orthogonalLoop=1;jettySize=auto;html=1;exitX=0;exitY=0.5;exitDx=0;exitDy=0;entryX=1.006;entryY=0.103;entryDx=0;entryDy=0;entryPerimeter=0;endArrow=none;endFill=0;" edge="1" parent="1" source="6hVKZMIilRhy27HZkqrv-104" target="6hVKZMIilRhy27HZkqrv-119">
          <mxGeometry relative="1" as="geometry">
            <Array as="points">
              <mxPoint x="680" y="1955" />
              <mxPoint x="680" y="1970" />
              <mxPoint x="521" y="1970" />
            </Array>
          </mxGeometry>
        </mxCell>
        <mxCell id="6hVKZMIilRhy27HZkqrv-92" style="edgeStyle=orthogonalEdgeStyle;rounded=0;orthogonalLoop=1;jettySize=auto;html=1;exitX=0.5;exitY=1;exitDx=0;exitDy=0;entryX=0.45;entryY=-0.008;entryDx=0;entryDy=0;entryPerimeter=0;endArrow=none;endFill=0;" edge="1" parent="1" source="6hVKZMIilRhy27HZkqrv-104" target="6hVKZMIilRhy27HZkqrv-110">
          <mxGeometry relative="1" as="geometry">
            <Array as="points">
              <mxPoint x="740" y="2309" />
            </Array>
          </mxGeometry>
        </mxCell>
        <mxCell id="6hVKZMIilRhy27HZkqrv-93" style="edgeStyle=orthogonalEdgeStyle;rounded=0;orthogonalLoop=1;jettySize=auto;html=1;exitX=1;exitY=1;exitDx=0;exitDy=0;entryX=0;entryY=0.25;entryDx=0;entryDy=0;endArrow=none;endFill=0;" edge="1" parent="1" source="6hVKZMIilRhy27HZkqrv-104" target="6hVKZMIilRhy27HZkqrv-108">
          <mxGeometry relative="1" as="geometry">
            <Array as="points">
              <mxPoint x="780" y="1970" />
              <mxPoint x="780" y="2085" />
            </Array>
          </mxGeometry>
        </mxCell>
        <mxCell id="6hVKZMIilRhy27HZkqrv-94" style="edgeStyle=orthogonalEdgeStyle;rounded=0;orthogonalLoop=1;jettySize=auto;html=1;exitX=1;exitY=0.5;exitDx=0;exitDy=0;entryX=0;entryY=0.75;entryDx=0;entryDy=0;endArrow=none;endFill=0;" edge="1" parent="1" source="6hVKZMIilRhy27HZkqrv-104" target="6hVKZMIilRhy27HZkqrv-105">
          <mxGeometry relative="1" as="geometry">
            <Array as="points">
              <mxPoint x="810" y="1970" />
              <mxPoint x="990" y="1970" />
            </Array>
          </mxGeometry>
        </mxCell>
        <mxCell id="6hVKZMIilRhy27HZkqrv-95" style="edgeStyle=orthogonalEdgeStyle;rounded=0;orthogonalLoop=1;jettySize=auto;html=1;exitX=0;exitY=0;exitDx=0;exitDy=0;entryX=0.874;entryY=1.019;entryDx=0;entryDy=0;entryPerimeter=0;endArrow=none;endFill=0;" edge="1" parent="1" source="6hVKZMIilRhy27HZkqrv-104" target="6hVKZMIilRhy27HZkqrv-118">
          <mxGeometry relative="1" as="geometry">
            <Array as="points">
              <mxPoint x="680" y="1910" />
              <mxPoint x="680" y="1840" />
              <mxPoint x="500" y="1840" />
              <mxPoint x="500" y="1821" />
            </Array>
          </mxGeometry>
        </mxCell>
        <mxCell id="6hVKZMIilRhy27HZkqrv-96" style="edgeStyle=orthogonalEdgeStyle;rounded=0;orthogonalLoop=1;jettySize=auto;html=1;exitX=0.25;exitY=0;exitDx=0;exitDy=0;entryX=0;entryY=0.5;entryDx=0;entryDy=0;endArrow=none;endFill=0;" edge="1" parent="1" source="6hVKZMIilRhy27HZkqrv-104" target="6hVKZMIilRhy27HZkqrv-106">
          <mxGeometry relative="1" as="geometry" />
        </mxCell>
        <mxCell id="6hVKZMIilRhy27HZkqrv-97" style="edgeStyle=orthogonalEdgeStyle;rounded=0;orthogonalLoop=1;jettySize=auto;html=1;exitX=0.25;exitY=0;exitDx=0;exitDy=0;endArrow=none;endFill=0;" edge="1" parent="1" source="6hVKZMIilRhy27HZkqrv-104" target="6hVKZMIilRhy27HZkqrv-106">
          <mxGeometry relative="1" as="geometry">
            <Array as="points">
              <mxPoint x="705" y="1720" />
              <mxPoint x="890" y="1720" />
            </Array>
          </mxGeometry>
        </mxCell>
        <mxCell id="6hVKZMIilRhy27HZkqrv-98" style="edgeStyle=orthogonalEdgeStyle;rounded=0;orthogonalLoop=1;jettySize=auto;html=1;exitX=0;exitY=0;exitDx=0;exitDy=0;endArrow=none;endFill=0;" edge="1" parent="1" source="6hVKZMIilRhy27HZkqrv-104" target="6hVKZMIilRhy27HZkqrv-118">
          <mxGeometry relative="1" as="geometry">
            <Array as="points">
              <mxPoint x="680" y="1910" />
              <mxPoint x="680" y="1890" />
              <mxPoint x="460" y="1890" />
            </Array>
          </mxGeometry>
        </mxCell>
        <mxCell id="6hVKZMIilRhy27HZkqrv-99" style="edgeStyle=orthogonalEdgeStyle;rounded=0;orthogonalLoop=1;jettySize=auto;html=1;exitX=0;exitY=0.622;exitDx=0;exitDy=0;entryX=0.75;entryY=1;entryDx=0;entryDy=0;exitPerimeter=0;endArrow=none;endFill=0;" edge="1" parent="1" source="6hVKZMIilRhy27HZkqrv-104" target="6hVKZMIilRhy27HZkqrv-119">
          <mxGeometry relative="1" as="geometry">
            <Array as="points">
              <mxPoint x="670" y="1970" />
              <mxPoint x="660" y="1970" />
              <mxPoint x="660" y="2040" />
              <mxPoint x="500" y="2040" />
              <mxPoint x="500" y="2020" />
            </Array>
          </mxGeometry>
        </mxCell>
        <mxCell id="6hVKZMIilRhy27HZkqrv-100" style="edgeStyle=orthogonalEdgeStyle;rounded=0;orthogonalLoop=1;jettySize=auto;html=1;exitX=0;exitY=0.5;exitDx=0;exitDy=0;entryX=0.5;entryY=1;entryDx=0;entryDy=0;endArrow=none;endFill=0;" edge="1" parent="1" source="6hVKZMIilRhy27HZkqrv-104" target="6hVKZMIilRhy27HZkqrv-119">
          <mxGeometry relative="1" as="geometry">
            <Array as="points">
              <mxPoint x="670" y="1970" />
              <mxPoint x="660" y="1970" />
              <mxPoint x="660" y="2090" />
              <mxPoint x="460" y="2090" />
            </Array>
          </mxGeometry>
        </mxCell>
        <mxCell id="6hVKZMIilRhy27HZkqrv-101" style="edgeStyle=orthogonalEdgeStyle;rounded=0;orthogonalLoop=1;jettySize=auto;html=1;exitX=0.75;exitY=1;exitDx=0;exitDy=0;entryX=0;entryY=0.75;entryDx=0;entryDy=0;endArrow=none;endFill=0;" edge="1" parent="1" source="6hVKZMIilRhy27HZkqrv-104" target="6hVKZMIilRhy27HZkqrv-108">
          <mxGeometry relative="1" as="geometry">
            <Array as="points">
              <mxPoint x="780" y="2000" />
              <mxPoint x="780" y="2140" />
              <mxPoint x="980" y="2140" />
            </Array>
          </mxGeometry>
        </mxCell>
        <mxCell id="6hVKZMIilRhy27HZkqrv-102" style="edgeStyle=orthogonalEdgeStyle;rounded=0;orthogonalLoop=1;jettySize=auto;html=1;exitX=0.75;exitY=1;exitDx=0;exitDy=0;entryX=1;entryY=0.25;entryDx=0;entryDy=0;endArrow=none;endFill=0;" edge="1" parent="1" source="6hVKZMIilRhy27HZkqrv-104" target="6hVKZMIilRhy27HZkqrv-108">
          <mxGeometry relative="1" as="geometry">
            <Array as="points">
              <mxPoint x="780" y="2000" />
              <mxPoint x="780" y="2035" />
              <mxPoint x="1180" y="2035" />
              <mxPoint x="1180" y="2089" />
            </Array>
          </mxGeometry>
        </mxCell>
        <mxCell id="6hVKZMIilRhy27HZkqrv-103" style="edgeStyle=orthogonalEdgeStyle;rounded=0;orthogonalLoop=1;jettySize=auto;html=1;exitX=0.5;exitY=1;exitDx=0;exitDy=0;entryX=1.013;entryY=0.639;entryDx=0;entryDy=0;entryPerimeter=0;endArrow=none;endFill=0;" edge="1" parent="1" source="6hVKZMIilRhy27HZkqrv-104" target="6hVKZMIilRhy27HZkqrv-110">
          <mxGeometry relative="1" as="geometry">
            <Array as="points">
              <mxPoint x="740" y="2155" />
              <mxPoint x="850" y="2155" />
              <mxPoint x="850" y="2320" />
              <mxPoint x="822" y="2320" />
            </Array>
          </mxGeometry>
        </mxCell>
        <mxCell id="6hVKZMIilRhy27HZkqrv-104" value="main" style="html=1;whiteSpace=wrap;" vertex="1" parent="1">
          <mxGeometry x="670" y="1910" width="140" height="90" as="geometry" />
        </mxCell>
        <mxCell id="6hVKZMIilRhy27HZkqrv-105" value="s : Model.Spring" style="html=1;whiteSpace=wrap;" vertex="1" parent="1">
          <mxGeometry x="990" y="1908.34" width="120" height="71.66" as="geometry" />
        </mxCell>
        <mxCell id="6hVKZMIilRhy27HZkqrv-106" value="p1 : Model.Pump" style="rounded=0;whiteSpace=wrap;html=1;" vertex="1" parent="1">
          <mxGeometry x="830" y="1630" width="120" height="60" as="geometry" />
        </mxCell>
        <mxCell id="6hVKZMIilRhy27HZkqrv-107" style="edgeStyle=orthogonalEdgeStyle;rounded=0;orthogonalLoop=1;jettySize=auto;html=1;exitX=1;exitY=0.5;exitDx=0;exitDy=0;endArrow=none;endFill=0;" edge="1" parent="1" source="6hVKZMIilRhy27HZkqrv-108">
          <mxGeometry relative="1" as="geometry">
            <mxPoint x="1100" y="2350" as="targetPoint" />
            <Array as="points">
              <mxPoint x="1180" y="2110" />
              <mxPoint x="1180" y="2343" />
            </Array>
          </mxGeometry>
        </mxCell>
        <mxCell id="6hVKZMIilRhy27HZkqrv-108" value="c : Model.Cistern" style="rounded=0;whiteSpace=wrap;html=1;" vertex="1" parent="1">
          <mxGeometry x="980" y="2069.17" width="130" height="80.83" as="geometry" />
        </mxCell>
        <mxCell id="6hVKZMIilRhy27HZkqrv-109" style="edgeStyle=orthogonalEdgeStyle;rounded=0;orthogonalLoop=1;jettySize=auto;html=1;exitX=0.75;exitY=1;exitDx=0;exitDy=0;entryX=0.121;entryY=1.002;entryDx=0;entryDy=0;entryPerimeter=0;endArrow=none;endFill=0;" edge="1" parent="1" source="6hVKZMIilRhy27HZkqrv-110" target="6hVKZMIilRhy27HZkqrv-108">
          <mxGeometry relative="1" as="geometry">
            <Array as="points">
              <mxPoint x="790" y="2390" />
              <mxPoint x="970" y="2390" />
              <mxPoint x="970" y="2210" />
              <mxPoint x="996" y="2210" />
            </Array>
          </mxGeometry>
        </mxCell>
        <mxCell id="6hVKZMIilRhy27HZkqrv-110" value="m : Model.Mechanic" style="rounded=0;whiteSpace=wrap;html=1;" vertex="1" parent="1">
          <mxGeometry x="700" y="2309.5" width="120" height="60" as="geometry" />
        </mxCell>
        <mxCell id="6hVKZMIilRhy27HZkqrv-111" value="1. &amp;lt;&amp;lt;create&amp;gt;&amp;gt;" style="text;html=1;align=center;verticalAlign=middle;resizable=0;points=[];autosize=1;strokeColor=none;fillColor=none;" vertex="1" parent="1">
          <mxGeometry x="840" y="1889.17" width="100" height="30" as="geometry" />
        </mxCell>
        <mxCell id="6hVKZMIilRhy27HZkqrv-112" value="2. &amp;lt;&amp;lt;create&amp;gt;&amp;gt;" style="text;html=1;align=center;verticalAlign=middle;resizable=0;points=[];autosize=1;strokeColor=none;fillColor=none;" vertex="1" parent="1">
          <mxGeometry x="720" y="1560" width="100" height="30" as="geometry" />
        </mxCell>
        <mxCell id="6hVKZMIilRhy27HZkqrv-113" value="" style="endArrow=classic;html=1;rounded=0;" edge="1" parent="1">
          <mxGeometry width="50" height="50" relative="1" as="geometry">
            <mxPoint x="740" y="1590" as="sourcePoint" />
            <mxPoint x="800" y="1590" as="targetPoint" />
          </mxGeometry>
        </mxCell>
        <mxCell id="6hVKZMIilRhy27HZkqrv-114" value="3. &amp;lt;&amp;lt;create&amp;gt;&amp;gt;" style="text;html=1;align=center;verticalAlign=middle;resizable=0;points=[];autosize=1;strokeColor=none;fillColor=none;" vertex="1" parent="1">
          <mxGeometry x="540" y="1730" width="100" height="30" as="geometry" />
        </mxCell>
        <mxCell id="6hVKZMIilRhy27HZkqrv-115" value="" style="endArrow=classic;html=1;rounded=0;" edge="1" parent="1">
          <mxGeometry width="50" height="50" relative="1" as="geometry">
            <mxPoint x="612.5" y="1760.83" as="sourcePoint" />
            <mxPoint x="567.5" y="1761.66" as="targetPoint" />
          </mxGeometry>
        </mxCell>
        <mxCell id="6hVKZMIilRhy27HZkqrv-116" value="7. AddPipe(pipe1)" style="text;html=1;align=center;verticalAlign=middle;resizable=0;points=[];autosize=1;strokeColor=none;fillColor=none;" vertex="1" parent="1">
          <mxGeometry x="830" y="1930" width="120" height="30" as="geometry" />
        </mxCell>
        <mxCell id="6hVKZMIilRhy27HZkqrv-117" value="" style="endArrow=classic;html=1;rounded=0;" edge="1" parent="1">
          <mxGeometry width="50" height="50" relative="1" as="geometry">
            <mxPoint x="855" y="1960" as="sourcePoint" />
            <mxPoint x="925" y="1960" as="targetPoint" />
          </mxGeometry>
        </mxCell>
        <mxCell id="6hVKZMIilRhy27HZkqrv-118" value="pipe1 : Model.Pipe" style="rounded=0;whiteSpace=wrap;html=1;" vertex="1" parent="1">
          <mxGeometry x="400" y="1760" width="120" height="60" as="geometry" />
        </mxCell>
        <mxCell id="6hVKZMIilRhy27HZkqrv-119" value="pipe2 : Model.Pipe" style="rounded=0;whiteSpace=wrap;html=1;" vertex="1" parent="1">
          <mxGeometry x="400" y="1960" width="120" height="60" as="geometry" />
        </mxCell>
        <mxCell id="6hVKZMIilRhy27HZkqrv-120" value="5. &amp;lt;&amp;lt;create&amp;gt;&amp;gt;" style="text;html=1;align=center;verticalAlign=middle;resizable=0;points=[];autosize=1;strokeColor=none;fillColor=none;" vertex="1" parent="1">
          <mxGeometry x="740" y="2210" width="100" height="30" as="geometry" />
        </mxCell>
        <mxCell id="6hVKZMIilRhy27HZkqrv-121" value="" style="endArrow=classic;html=1;rounded=0;" edge="1" parent="1">
          <mxGeometry width="50" height="50" relative="1" as="geometry">
            <mxPoint x="750" y="2190" as="sourcePoint" />
            <mxPoint x="750" y="2260" as="targetPoint" />
          </mxGeometry>
        </mxCell>
        <mxCell id="6hVKZMIilRhy27HZkqrv-122" value="6. &amp;lt;&amp;lt;create&amp;gt;&amp;gt;" style="text;html=1;align=center;verticalAlign=middle;resizable=0;points=[];autosize=1;strokeColor=none;fillColor=none;" vertex="1" parent="1">
          <mxGeometry x="820" y="2050" width="100" height="30" as="geometry" />
        </mxCell>
        <mxCell id="6hVKZMIilRhy27HZkqrv-123" value="" style="endArrow=classic;html=1;rounded=0;" edge="1" parent="1">
          <mxGeometry width="50" height="50" relative="1" as="geometry">
            <mxPoint x="835" y="2080" as="sourcePoint" />
            <mxPoint x="905" y="2080" as="targetPoint" />
          </mxGeometry>
        </mxCell>
        <mxCell id="6hVKZMIilRhy27HZkqrv-124" value="created : Model.Pump" style="rounded=0;whiteSpace=wrap;html=1;" vertex="1" parent="1">
          <mxGeometry x="985" y="2320" width="120" height="60" as="geometry" />
        </mxCell>
        <mxCell id="6hVKZMIilRhy27HZkqrv-125" value="8. AddWaterNode(s)" style="text;html=1;align=center;verticalAlign=middle;resizable=0;points=[];autosize=1;strokeColor=none;fillColor=none;" vertex="1" parent="1">
          <mxGeometry x="525" y="1794.58" width="130" height="30" as="geometry" />
        </mxCell>
        <mxCell id="6hVKZMIilRhy27HZkqrv-126" value="9. AddPipe(pipe1)" style="text;html=1;align=center;verticalAlign=middle;resizable=0;points=[];autosize=1;strokeColor=none;fillColor=none;" vertex="1" parent="1">
          <mxGeometry x="710" y="1619" width="120" height="30" as="geometry" />
        </mxCell>
        <mxCell id="6hVKZMIilRhy27HZkqrv-127" value="" style="endArrow=classic;html=1;rounded=0;" edge="1" parent="1">
          <mxGeometry width="50" height="50" relative="1" as="geometry">
            <mxPoint x="617.5" y="1824.5800000000002" as="sourcePoint" />
            <mxPoint x="562.5" y="1825.41" as="targetPoint" />
          </mxGeometry>
        </mxCell>
        <mxCell id="6hVKZMIilRhy27HZkqrv-128" value="" style="endArrow=classic;html=1;rounded=0;" edge="1" parent="1">
          <mxGeometry width="50" height="50" relative="1" as="geometry">
            <mxPoint x="735" y="1649" as="sourcePoint" />
            <mxPoint x="805" y="1649" as="targetPoint" />
          </mxGeometry>
        </mxCell>
        <mxCell id="6hVKZMIilRhy27HZkqrv-129" value="16. &amp;lt;&amp;lt;create&amp;gt;&amp;gt;" style="text;html=1;align=center;verticalAlign=middle;resizable=0;points=[];autosize=1;strokeColor=none;fillColor=none;" vertex="1" parent="1">
          <mxGeometry x="1190" y="2190" width="100" height="30" as="geometry" />
        </mxCell>
        <mxCell id="6hVKZMIilRhy27HZkqrv-130" value="" style="endArrow=classic;html=1;rounded=0;" edge="1" parent="1">
          <mxGeometry width="50" height="50" relative="1" as="geometry">
            <mxPoint x="1190" y="2170" as="sourcePoint" />
            <mxPoint x="1190" y="2240" as="targetPoint" />
          </mxGeometry>
        </mxCell>
        <mxCell id="6hVKZMIilRhy27HZkqrv-131" value="" style="endArrow=classic;html=1;rounded=0;" edge="1" parent="1">
          <mxGeometry width="50" height="50" relative="1" as="geometry">
            <mxPoint x="855" y="1919.17" as="sourcePoint" />
            <mxPoint x="925" y="1919.17" as="targetPoint" />
          </mxGeometry>
        </mxCell>
        <mxCell id="6hVKZMIilRhy27HZkqrv-132" value="4. &amp;lt;&amp;lt;create&amp;gt;&amp;gt;" style="text;html=1;align=center;verticalAlign=middle;resizable=0;points=[];autosize=1;strokeColor=none;fillColor=none;" vertex="1" parent="1">
          <mxGeometry x="540" y="1930" width="100" height="30" as="geometry" />
        </mxCell>
        <mxCell id="6hVKZMIilRhy27HZkqrv-133" value="" style="endArrow=classic;html=1;rounded=0;" edge="1" parent="1">
          <mxGeometry width="50" height="50" relative="1" as="geometry">
            <mxPoint x="612.5" y="1960.83" as="sourcePoint" />
            <mxPoint x="567.5" y="1961.66" as="targetPoint" />
          </mxGeometry>
        </mxCell>
        <mxCell id="6hVKZMIilRhy27HZkqrv-134" value="11. AddPipe(pipe2)" style="text;html=1;align=center;verticalAlign=middle;resizable=0;points=[];autosize=1;strokeColor=none;fillColor=none;" vertex="1" parent="1">
          <mxGeometry x="710" y="1680" width="120" height="30" as="geometry" />
        </mxCell>
        <mxCell id="6hVKZMIilRhy27HZkqrv-135" value="10. AddWaterNode(p1)" style="text;html=1;align=center;verticalAlign=middle;resizable=0;points=[];autosize=1;strokeColor=none;fillColor=none;" vertex="1" parent="1">
          <mxGeometry x="515" y="1850" width="150" height="30" as="geometry" />
        </mxCell>
        <mxCell id="6hVKZMIilRhy27HZkqrv-136" value="" style="endArrow=classic;html=1;rounded=0;" edge="1" parent="1">
          <mxGeometry width="50" height="50" relative="1" as="geometry">
            <mxPoint x="617.5" y="1880" as="sourcePoint" />
            <mxPoint x="562.5" y="1880.83" as="targetPoint" />
          </mxGeometry>
        </mxCell>
        <mxCell id="6hVKZMIilRhy27HZkqrv-137" value="12. AddWaterNode(p1)" style="text;html=1;align=center;verticalAlign=middle;resizable=0;points=[];autosize=1;strokeColor=none;fillColor=none;" vertex="1" parent="1">
          <mxGeometry x="515" y="2000" width="150" height="30" as="geometry" />
        </mxCell>
        <mxCell id="6hVKZMIilRhy27HZkqrv-138" value="" style="endArrow=classic;html=1;rounded=0;" edge="1" parent="1">
          <mxGeometry width="50" height="50" relative="1" as="geometry">
            <mxPoint x="617.5" y="2030" as="sourcePoint" />
            <mxPoint x="562.5" y="2030.83" as="targetPoint" />
          </mxGeometry>
        </mxCell>
        <mxCell id="6hVKZMIilRhy27HZkqrv-139" value="14. AddWaterNode(c)" style="text;html=1;align=center;verticalAlign=middle;resizable=0;points=[];autosize=1;strokeColor=none;fillColor=none;" vertex="1" parent="1">
          <mxGeometry x="520" y="2050" width="140" height="30" as="geometry" />
        </mxCell>
        <mxCell id="6hVKZMIilRhy27HZkqrv-140" value="" style="endArrow=classic;html=1;rounded=0;" edge="1" parent="1">
          <mxGeometry width="50" height="50" relative="1" as="geometry">
            <mxPoint x="617.5" y="2080" as="sourcePoint" />
            <mxPoint x="562.5" y="2080.83" as="targetPoint" />
          </mxGeometry>
        </mxCell>
        <mxCell id="6hVKZMIilRhy27HZkqrv-141" value="13. AddPipe(pipe3)" style="text;html=1;align=center;verticalAlign=middle;resizable=0;points=[];autosize=1;strokeColor=none;fillColor=none;" vertex="1" parent="1">
          <mxGeometry x="815" y="2100" width="130" height="30" as="geometry" />
        </mxCell>
        <mxCell id="6hVKZMIilRhy27HZkqrv-142" value="15. GeneratePickupables()" style="text;html=1;align=center;verticalAlign=middle;resizable=0;points=[];autosize=1;strokeColor=none;fillColor=none;" vertex="1" parent="1">
          <mxGeometry x="975" y="1998.82" width="170" height="30" as="geometry" />
        </mxCell>
        <mxCell id="6hVKZMIilRhy27HZkqrv-143" value="" style="endArrow=classic;html=1;rounded=0;" edge="1" parent="1">
          <mxGeometry width="50" height="50" relative="1" as="geometry">
            <mxPoint x="1025" y="2028.82" as="sourcePoint" />
            <mxPoint x="1095" y="2028.82" as="targetPoint" />
          </mxGeometry>
        </mxCell>
        <mxCell id="6hVKZMIilRhy27HZkqrv-144" value="17. Move(c)" style="text;html=1;align=center;verticalAlign=middle;resizable=0;points=[];autosize=1;strokeColor=none;fillColor=none;" vertex="1" parent="1">
          <mxGeometry x="855" y="2210" width="90" height="30" as="geometry" />
        </mxCell>
        <mxCell id="6hVKZMIilRhy27HZkqrv-145" value="" style="endArrow=classic;html=1;rounded=0;" edge="1" parent="1">
          <mxGeometry width="50" height="50" relative="1" as="geometry">
            <mxPoint x="860" y="2190" as="sourcePoint" />
            <mxPoint x="860" y="2260" as="targetPoint" />
          </mxGeometry>
        </mxCell>
        <mxCell id="6hVKZMIilRhy27HZkqrv-146" value="18. PlayerEnter(m)" style="text;html=1;align=center;verticalAlign=middle;resizable=0;points=[];autosize=1;strokeColor=none;fillColor=none;" vertex="1" parent="1">
          <mxGeometry x="830" y="2348.8199999999997" width="120" height="30" as="geometry" />
        </mxCell>
        <mxCell id="6hVKZMIilRhy27HZkqrv-147" value="" style="endArrow=classic;html=1;rounded=0;" edge="1" parent="1">
          <mxGeometry width="50" height="50" relative="1" as="geometry">
            <mxPoint x="855" y="2378.8199999999997" as="sourcePoint" />
            <mxPoint x="925" y="2378.8199999999997" as="targetPoint" />
          </mxGeometry>
        </mxCell>
        <mxCell id="6hVKZMIilRhy27HZkqrv-148" value="" style="endArrow=classic;html=1;rounded=0;" edge="1" parent="1">
          <mxGeometry width="50" height="50" relative="1" as="geometry">
            <mxPoint x="835" y="2130" as="sourcePoint" />
            <mxPoint x="905" y="2130" as="targetPoint" />
          </mxGeometry>
        </mxCell>
        <mxCell id="6hVKZMIilRhy27HZkqrv-149" value="" style="endArrow=classic;html=1;rounded=0;" edge="1" parent="1">
          <mxGeometry width="50" height="50" relative="1" as="geometry">
            <mxPoint x="735" y="1710" as="sourcePoint" />
            <mxPoint x="805" y="1710" as="targetPoint" />
          </mxGeometry>
        </mxCell>
        <mxCell id="6hVKZMIilRhy27HZkqrv-150" value="Model.Pump pickup and placedown from Model.Cistern, Map creation" style="shape=umlFrame;whiteSpace=wrap;html=1;pointerEvents=0;width=320;height=30;" vertex="1" parent="1">
          <mxGeometry x="350" y="1540" width="1000" height="880" as="geometry" />
        </mxCell>
      </root>
    </mxGraphModel>
  </diagram>
</mxfile>
